<svg width="472" height="457" viewBox="0 0 472 457" fill="none" xmlns="http://www.w3.org/2000/svg">
<path d="M235.61 456.979C365.734 456.979 471.22 396.077 471.22 320.949C471.22 245.822 365.734 184.919 235.61 184.919C105.486 184.919 0 245.822 0 320.949C0 396.077 105.486 456.979 235.61 456.979Z" fill="#393939"/>
<path d="M370.92 368.149C355.47 359.229 355.47 344.769 370.92 335.849C386.37 326.929 411.42 326.929 426.87 335.849C442.32 344.769 442.32 359.229 426.87 368.149C411.42 377.069 386.37 377.069 370.92 368.149Z" fill="#6D6B6B"/>
<path d="M56.68 369.389L16.04 345.929C13.75 344.609 13.75 342.459 16.04 341.139L252.43 204.659C253.715 204.008 255.135 203.669 256.575 203.669C258.015 203.669 259.435 204.008 260.72 204.659L301.37 228.119C303.66 229.439 303.66 231.589 301.37 232.909L64.98 369.389C63.6935 370.04 62.2719 370.38 60.83 370.38C59.3881 370.38 57.9665 370.04 56.68 369.389Z" fill="#6D6B6B"/>
<path d="M202.76 327.569L237.7 307.369C241.3 305.289 243.1 302.569 243.1 299.839C243.1 297.109 243.1 294.979 243.1 294.979L206.86 274.539C205.848 273.885 205.005 273 204.4 271.957C203.795 270.914 203.446 269.743 203.38 268.539V225.449L142.38 260.709V303.779C142.45 304.982 142.802 306.151 143.406 307.193C144.011 308.235 144.851 309.121 145.86 309.779L176.7 327.539C183.88 331.729 195.56 331.729 202.76 327.569Z" fill="#216778"/>
<g opacity="0.6">
<path d="M202.76 327.569L237.7 307.369C241.3 305.289 243.1 302.569 243.1 299.839C243.1 297.109 243.1 294.979 243.1 294.979L206.86 274.539C205.848 273.885 205.005 273 204.4 271.957C203.795 270.914 203.446 269.743 203.38 268.539V225.449L142.38 260.709V303.779C142.45 304.982 142.802 306.151 143.406 307.193C144.011 308.235 144.851 309.121 145.86 309.779L176.7 327.539C183.88 331.729 195.56 331.729 202.76 327.569Z" fill="black"/>
</g>
<path opacity="0.3" d="M157.01 311.409V316.249L145.83 309.799C144.821 309.142 143.981 308.256 143.379 307.214C142.776 306.171 142.427 305.002 142.36 303.799V260.709L153.98 253.999C154.22 256.949 154.48 259.999 154.73 262.999L146.56 267.699V301.349C146.625 302.553 146.974 303.725 147.579 304.768C148.184 305.811 149.027 306.695 150.04 307.349L157.01 311.409Z" fill="black"/>
<path d="M146.56 301.359C146.629 302.562 146.98 303.732 147.584 304.775C148.189 305.817 149.03 306.702 150.04 307.359L176.66 322.699C183.86 326.849 195.54 326.859 202.75 322.699L237.75 302.499C244.96 298.339 244.96 291.599 237.75 287.439L211.11 272.099C210.102 271.441 209.263 270.555 208.661 269.512C208.058 268.47 207.708 267.301 207.64 266.099V232.439L146.64 267.699L146.56 301.359Z" fill="#216778"/>
<path opacity="0.3" d="M146.56 301.359C146.629 302.562 146.98 303.732 147.584 304.775C148.189 305.817 149.03 306.702 150.04 307.359L176.66 322.699C183.86 326.849 195.54 326.859 202.75 322.699L237.75 302.499C244.96 298.339 244.96 291.599 237.75 287.439L211.11 272.099C210.102 271.441 209.263 270.555 208.661 269.512C208.058 268.47 207.708 267.301 207.64 266.099V232.439L146.64 267.699L146.56 301.359Z" fill="black"/>
<path opacity="0.5" d="M218.16 276.209L211.07 272.119C210.062 271.461 209.223 270.575 208.621 269.533C208.018 268.49 207.668 267.321 207.6 266.119V232.439L146.6 267.699V301.359C146.669 302.562 147.02 303.732 147.624 304.775C148.229 305.817 149.07 306.702 150.08 307.359L157.08 311.359L218.16 276.209Z" fill="black"/>
<path d="M243.11 294.989V299.849C243.11 302.579 241.3 305.289 237.71 307.379L202.71 327.569C198.88 329.614 194.602 330.676 190.26 330.659V325.819C194.602 325.836 198.88 324.774 202.71 322.729L237.71 302.519C241.3 300.449 243.11 297.719 243.11 294.989Z" fill="#216778"/>
<path opacity="0.5" d="M243.11 294.989V299.849C243.11 302.579 241.3 305.289 237.71 307.379L202.71 327.569C198.88 329.614 194.602 330.676 190.26 330.659V325.819C194.602 325.836 198.88 324.774 202.71 322.729L237.71 302.519C241.3 300.449 243.11 297.719 243.11 294.989Z" fill="black"/>
<path d="M48.56 343.189C49.8787 343.826 51.3286 344.145 52.7929 344.118C54.2571 344.092 55.6948 343.723 56.99 343.039L292.99 206.789C294.255 205.964 295.309 204.852 296.064 203.544C296.82 202.236 297.257 200.768 297.34 199.259V8.33936C297.295 6.87173 296.904 5.43555 296.198 4.14784C295.492 2.86014 294.493 1.75736 293.28 0.929362C291.963 0.291717 290.514 -0.0261229 289.051 0.00167886C287.588 0.0294806 286.152 0.40214 284.86 1.08936L48.86 137.379C47.599 138.21 46.5521 139.327 45.8049 140.639C45.0576 141.951 44.631 143.421 44.56 144.929V335.819C44.6046 337.275 44.9897 338.7 45.6843 339.98C46.379 341.259 47.3638 342.359 48.56 343.189Z" fill="#216778"/>
<path d="M57.02 343.029L293.02 206.779C294.287 205.956 295.342 204.844 296.098 203.536C296.854 202.227 297.29 200.758 297.37 199.249V8.33936C297.37 5.56936 295.42 4.43937 293.02 5.82937L57.02 142.079C55.754 142.904 54.7004 144.016 53.9445 145.324C53.1887 146.633 52.7521 148.101 52.67 149.609V340.519C52.67 343.289 54.62 344.419 57.02 343.029Z" fill="#216778"/>
<path opacity="0.5" d="M57.02 343.029L293.02 206.779C294.287 205.956 295.342 204.844 296.098 203.536C296.854 202.227 297.29 200.758 297.37 199.249V8.33936C297.37 5.56936 295.42 4.43937 293.02 5.82937L57.02 142.079C55.754 142.904 54.7004 144.016 53.9445 145.324C53.1887 146.633 52.7521 148.101 52.67 149.609V340.519C52.67 343.289 54.62 344.419 57.02 343.029Z" fill="black"/>
<path d="M56.38 347.989C55.1424 348.53 53.8025 348.795 52.4524 348.767C51.1024 348.74 49.7744 348.42 48.56 347.829C47.3612 346.997 46.3746 345.894 45.6799 344.611C44.9851 343.327 44.6015 341.898 44.56 340.439V323.059L52.71 327.779V345.159C52.66 347.689 54.27 348.839 56.38 347.989Z" fill="#216778"/>
<path opacity="0.5" d="M56.38 347.989C55.1424 348.53 53.8025 348.795 52.4524 348.767C51.1024 348.74 49.7744 348.42 48.56 347.829C47.3612 346.997 46.3746 345.894 45.6799 344.611C44.9851 343.327 44.6015 341.898 44.56 340.439V323.059L52.71 327.779V345.159C52.66 347.689 54.27 348.839 56.38 347.989Z" fill="black"/>
<path d="M52.66 327.779V345.159C52.66 347.929 54.66 349.049 57.01 347.669L293.01 211.419C294.27 210.598 295.32 209.492 296.076 208.192C296.831 206.891 297.271 205.431 297.36 203.929V186.469L52.66 327.779Z" fill="#216778"/>
<path opacity="0.3" d="M52.67 327.739V345.159C52.67 347.929 54.67 349.049 57.02 347.669L293.02 211.419C294.278 210.597 295.326 209.491 296.08 208.19C296.834 206.889 297.272 205.43 297.36 203.929V186.469L52.67 327.739Z" fill="black"/>
<path d="M60.82 305.929V152.319C60.8666 151.414 61.1263 150.533 61.5782 149.748C62.03 148.962 62.6611 148.295 63.42 147.799L286.56 18.9294C288 18.0994 289.17 18.7694 289.17 20.4294V174.119C289.122 175.025 288.86 175.906 288.406 176.692C287.953 177.477 287.32 178.145 286.56 178.639L63.43 307.479C61.99 308.309 60.82 307.629 60.82 305.929Z" fill="#216778"/>
<path d="M60.82 305.929V152.319C60.8666 151.414 61.1263 150.533 61.5782 149.748C62.03 148.962 62.6611 148.295 63.42 147.799L286.56 18.9294C288 18.0994 289.17 18.7694 289.17 20.4294V174.119C289.122 175.025 288.86 175.906 288.406 176.692C287.953 177.477 287.32 178.145 286.56 178.639L63.43 307.479C61.99 308.309 60.82 307.629 60.82 305.929Z" fill="#263238"/>
<path d="M175.01 262.659C173.822 263.432 172.834 264.474 172.125 265.701C171.416 266.928 171.006 268.304 170.93 269.719C170.93 272.319 172.76 273.379 175.01 272.079C176.199 271.306 177.189 270.262 177.898 269.034C178.607 267.805 179.015 266.426 179.09 265.009C179.09 262.409 177.26 261.359 175.01 262.659Z" fill="#216778"/>
<path opacity="0.7" d="M53.95 145.309C53.175 146.612 52.732 148.085 52.66 149.599V327.779L44.56 323.059V144.929C44.6125 143.41 45.0531 141.93 45.84 140.629L53.95 145.309Z" fill="black"/>
<path opacity="0.3" d="M297.32 7.61936C297.01 5.37936 295.2 4.61936 293.01 5.82936L57.01 142.079C55.7304 142.88 54.6743 143.991 53.94 145.309L45.78 140.599C46.5192 139.281 47.5784 138.17 48.86 137.369L284.86 1.12936C286.154 0.442045 287.591 0.0693681 289.056 0.0415688C290.521 0.0137694 291.971 0.33163 293.29 0.969362C294.399 1.72472 295.332 2.70932 296.027 3.85658C296.723 5.00385 297.163 6.28703 297.32 7.61936Z" fill="black"/>
<path d="M290.956 26.2353C290.605 26.0594 290.213 25.9822 289.822 26.0122C289.431 26.0421 289.056 26.178 288.736 26.4053L66.0559 155.045C65.1772 155.627 64.4478 156.406 63.9266 157.322C63.4054 158.238 63.1071 159.263 63.0559 160.315V312.985C63.0247 313.501 63.127 314.015 63.353 314.48C63.579 314.944 63.921 315.342 64.3459 315.635C64.8359 315.905 67.4559 317.425 68.2359 317.845C68.5119 317.986 68.8202 318.051 69.1294 318.033C69.4386 318.016 69.7376 317.916 69.9959 317.745L292.626 189.105C293.505 188.524 294.234 187.744 294.755 186.829C295.276 185.913 295.575 184.888 295.626 183.835V30.3753C295.671 29.9875 295.606 29.5949 295.44 29.2416C295.274 28.8883 295.013 28.5883 294.686 28.3753C294.186 28.0453 291.516 26.5653 290.956 26.2353Z" fill="#216778"/>
<path d="M69.9459 157.205L292.636 28.6153C294.316 27.6153 295.636 28.4353 295.636 30.3753V183.835C295.585 184.888 295.286 185.913 294.765 186.829C294.244 187.744 293.515 188.524 292.636 189.105L69.9459 317.745C68.2659 318.745 66.9459 317.135 66.9459 315.195V162.475C66.9987 161.423 67.2976 160.399 67.8187 159.483C68.3397 158.568 69.0683 157.788 69.9459 157.205Z" fill="#A29F9F"/>
<path d="M293.996 29.1953C294.586 29.1953 294.676 29.9353 294.676 30.3753V183.835C294.622 184.716 294.363 185.573 293.921 186.337C293.478 187.1 292.864 187.75 292.126 188.235L69.4659 316.875C69.3164 316.972 69.1438 317.027 68.9659 317.035C68.4059 317.035 67.9659 316.175 67.9659 315.195V162.475C68.0141 161.594 68.2648 160.737 68.6984 159.968C69.1319 159.2 69.7368 158.542 70.4659 158.045L293.136 29.4753C293.393 29.309 293.69 29.2125 293.996 29.1953ZM293.996 28.1953C293.514 28.2158 293.045 28.3605 292.636 28.6153L69.9459 157.205C69.0683 157.788 68.3397 158.568 67.8187 159.483C67.2976 160.399 66.9987 161.423 66.9459 162.475V315.195C66.9459 316.735 67.8059 318.035 68.9459 318.035C69.299 318.029 69.644 317.929 69.9459 317.745L292.626 189.105C293.505 188.524 294.234 187.744 294.755 186.829C295.276 185.913 295.575 184.888 295.626 183.835V30.3753C295.626 28.9953 294.946 28.1953 293.946 28.1953H293.996Z" fill="#625E5E"/>
<path d="M64.2859 315.635C64.6159 315.805 66.9859 317.155 68.0259 317.755C67.6524 317.445 67.3567 317.053 67.1622 316.608C66.9677 316.164 66.8799 315.68 66.9059 315.195V172.445L63.0059 170.165V312.985C62.9736 313.5 63.0744 314.014 63.2986 314.478C63.5228 314.942 63.8628 315.341 64.2859 315.635Z" fill="#595959"/>
<path d="M295.676 30.3453C295.676 28.4253 294.306 27.6453 292.676 28.6153L69.9459 157.205C69.0683 157.788 68.3397 158.568 67.8187 159.483C67.2976 160.399 66.9987 161.423 66.9459 162.475V172.475L295.676 40.3453V30.3453Z" fill="#216778"/>
<g opacity="0.4">
<path d="M292.636 28.6153L69.9459 157.195C69.0521 157.759 68.3159 158.54 67.8059 159.465L63.9359 157.215C64.445 156.322 65.175 155.575 66.0559 155.045L288.736 26.4053C289.055 26.1764 289.43 26.0388 289.821 26.0071C290.212 25.9754 290.604 26.0508 290.956 26.2253C291.496 26.5653 294.026 27.9953 294.676 28.3453C294.34 28.2206 293.978 28.18 293.622 28.2271C293.267 28.2741 292.928 28.4074 292.636 28.6153Z" fill="#979292"/>
</g>
<path opacity="0.15" d="M63.0059 170.175V160.265C63.047 159.185 63.3674 158.134 63.9359 157.215L67.8159 159.455C67.2555 160.359 66.9418 161.393 66.9059 162.455V172.455L63.0059 170.175Z" fill="black"/>
<path d="M248.716 145.465L115.346 222.465C114.697 222.886 114.157 223.454 113.77 224.123C113.382 224.792 113.158 225.543 113.116 226.315V264.555C113.158 265.327 113.382 266.078 113.77 266.747C114.157 267.416 114.697 267.984 115.346 268.405L119.236 270.645C119.927 270.995 120.691 271.177 121.466 271.177C122.241 271.177 123.005 270.995 123.696 270.645L257.046 193.645C257.695 193.222 258.235 192.652 258.622 191.982C259.01 191.311 259.234 190.559 259.276 189.785V151.535C259.234 150.763 259.009 150.012 258.622 149.343C258.234 148.674 257.694 148.106 257.046 147.685L253.146 145.445C252.458 145.101 251.698 144.924 250.929 144.927C250.159 144.931 249.401 145.115 248.716 145.465Z" fill="#216778"/>
<path opacity="0.5" d="M259.276 151.195C259.116 150.045 258.186 149.625 257.066 150.275L123.696 227.275C123.038 227.684 122.497 228.256 122.126 228.935L113.776 224.115C114.15 223.446 114.687 222.882 115.336 222.475L248.716 145.475C249.405 145.125 250.168 144.942 250.941 144.942C251.714 144.942 252.477 145.125 253.166 145.475L257.066 147.715C257.66 148.105 258.165 148.617 258.546 149.217C258.927 149.817 259.176 150.491 259.276 151.195Z" fill="#979292"/>
<path d="M123.316 270.835C122.663 271.093 121.963 271.21 121.262 271.179C120.56 271.148 119.874 270.969 119.246 270.655L115.346 268.415C114.698 267.993 114.159 267.425 113.772 266.756C113.385 266.087 113.16 265.337 113.116 264.565V226.325C113.146 225.545 113.373 224.784 113.776 224.115L122.126 228.935C121.72 229.596 121.493 230.35 121.466 231.125V269.375C121.466 270.645 122.266 271.235 123.316 270.835Z" fill="#263238"/>
<path d="M123.696 227.275L257.066 150.275C258.296 149.565 259.296 150.135 259.296 151.555V189.805C259.254 190.579 259.03 191.331 258.642 192.002C258.255 192.672 257.715 193.242 257.066 193.665L123.716 270.665C122.486 271.375 121.486 270.795 121.486 269.375V231.135C121.526 230.364 121.747 229.612 122.131 228.942C122.515 228.271 123.051 227.701 123.696 227.275Z" fill="#216778"/>
<path d="M213.356 165.885L115.356 222.475C114.707 222.882 114.17 223.446 113.796 224.115L122.146 228.935C122.517 228.256 123.058 227.684 123.716 227.275L221.716 170.695L213.356 165.885Z" fill="#455A64"/>
<path d="M221.696 170.695L123.696 227.275C123.047 227.698 122.507 228.268 122.12 228.939C121.732 229.609 121.508 230.362 121.466 231.135V269.365C121.466 270.785 122.466 271.365 123.696 270.655L221.696 214.075V170.695Z" fill="#37474F"/>
<path d="M146.296 222.615L196.866 193.425C198.956 192.215 200.656 193.075 200.656 195.345C200.562 196.62 200.17 197.855 199.509 198.95C198.849 200.044 197.94 200.968 196.856 201.645L146.296 230.845C144.206 232.055 142.496 231.195 142.496 228.925C142.59 227.649 142.983 226.413 143.643 225.317C144.303 224.221 145.212 223.295 146.296 222.615Z" fill="#216778"/>
<path d="M156.656 232.285C156.665 232.275 156.677 232.266 156.69 232.26C156.703 232.254 156.717 232.251 156.731 232.251C156.745 232.251 156.759 232.254 156.772 232.26C156.785 232.266 156.796 232.275 156.806 232.285C156.851 232.353 156.872 232.434 156.866 232.515V238.205C156.867 238.755 156.82 239.304 156.726 239.845C156.643 240.34 156.502 240.824 156.306 241.285C156.127 241.708 155.891 242.105 155.606 242.465C155.325 242.799 154.986 243.08 154.606 243.295C154.308 243.489 153.961 243.593 153.606 243.595C153.47 243.584 153.338 243.546 153.218 243.482C153.097 243.419 152.991 243.331 152.906 243.225C152.686 242.931 152.542 242.588 152.486 242.225C152.39 241.741 152.347 241.248 152.356 240.755V235.055C152.356 234.955 152.376 234.857 152.416 234.765C152.44 234.683 152.494 234.612 152.566 234.565L153.196 234.195C153.216 234.176 153.243 234.166 153.271 234.166C153.299 234.166 153.326 234.176 153.346 234.195C153.392 234.263 153.413 234.344 153.406 234.425V240.045C153.398 240.354 153.428 240.663 153.496 240.965C153.523 241.158 153.607 241.339 153.736 241.485C153.781 241.539 153.838 241.581 153.902 241.609C153.966 241.637 154.036 241.649 154.106 241.645C154.277 241.634 154.442 241.579 154.586 241.485C154.764 241.379 154.925 241.248 155.066 241.095C155.222 240.915 155.35 240.713 155.446 240.495C155.559 240.239 155.643 239.97 155.696 239.695C155.754 239.365 155.781 239.03 155.776 238.695V233.065C155.779 232.965 155.803 232.866 155.846 232.775C155.87 232.693 155.924 232.622 155.996 232.575L156.656 232.285Z" fill="#A29F9F"/>
<path d="M160.576 237.665C160.581 237.592 160.564 237.518 160.526 237.455C160.502 237.429 160.472 237.409 160.439 237.397C160.406 237.385 160.371 237.381 160.336 237.385C160.213 237.369 160.089 237.369 159.966 237.385L159.386 237.495C159.199 237.542 159.003 237.542 158.816 237.495C158.669 237.448 158.542 237.353 158.456 237.225C158.358 237.063 158.293 236.883 158.266 236.695C158.168 236.16 158.168 235.611 158.266 235.075C158.341 234.768 158.448 234.47 158.586 234.185C158.723 233.901 158.891 233.633 159.086 233.385C159.275 233.149 159.506 232.949 159.766 232.795C159.976 232.667 160.211 232.585 160.456 232.555C160.633 232.537 160.812 232.575 160.966 232.665C161.113 232.755 161.228 232.887 161.296 233.045C161.377 233.232 161.421 233.432 161.426 233.635C161.436 233.736 161.415 233.837 161.366 233.925C161.341 234.008 161.288 234.079 161.216 234.125L160.616 234.475C160.589 234.491 160.557 234.499 160.526 234.499C160.494 234.499 160.463 234.491 160.436 234.475L160.306 234.375C160.254 234.334 160.192 234.31 160.126 234.305C159.997 234.32 159.874 234.364 159.766 234.435C159.609 234.53 159.47 234.652 159.356 234.795C159.235 234.953 159.171 235.147 159.176 235.345C159.162 235.421 159.162 235.499 159.176 235.575C159.195 235.603 159.22 235.627 159.25 235.644C159.279 235.662 159.312 235.672 159.346 235.675C159.455 235.694 159.567 235.694 159.676 235.675L160.236 235.575C160.706 235.485 161.026 235.575 161.236 235.835C161.457 236.206 161.558 236.635 161.526 237.065C161.523 237.362 161.483 237.658 161.406 237.945C161.327 238.257 161.213 238.559 161.066 238.845C160.919 239.141 160.734 239.417 160.516 239.665C160.309 239.908 160.062 240.115 159.786 240.275C159.566 240.416 159.316 240.502 159.056 240.525C158.868 240.532 158.683 240.479 158.526 240.375C158.371 240.27 158.253 240.12 158.186 239.945C158.105 239.756 158.064 239.551 158.066 239.345C158.057 239.242 158.077 239.137 158.126 239.045C158.15 238.963 158.204 238.892 158.276 238.845L158.876 238.495C158.956 238.495 159.016 238.445 159.056 238.495L159.186 238.635C159.212 238.665 159.245 238.689 159.281 238.706C159.317 238.724 159.356 238.733 159.396 238.735C159.537 238.736 159.674 238.69 159.786 238.605C159.966 238.503 160.129 238.371 160.266 238.215C160.334 238.133 160.391 238.042 160.436 237.945C160.507 237.866 160.555 237.769 160.576 237.665Z" fill="#A29F9F"/>
<path d="M162.616 234.955C162.614 234.436 162.658 233.917 162.746 233.405C162.829 232.924 162.96 232.451 163.136 231.995C163.283 231.587 163.485 231.2 163.736 230.845C163.946 230.541 164.218 230.285 164.536 230.095C164.768 229.939 165.051 229.879 165.326 229.925C165.57 229.982 165.784 230.128 165.926 230.335C166.114 230.607 166.247 230.912 166.316 231.235C166.412 231.655 166.459 232.085 166.456 232.515V233.135C166.459 233.24 166.435 233.343 166.386 233.435C166.361 233.518 166.308 233.589 166.236 233.635L163.636 235.145C163.63 235.321 163.653 235.497 163.706 235.665C163.745 235.779 163.814 235.879 163.906 235.955C163.988 236.02 164.091 236.052 164.196 236.045C164.317 236.031 164.433 235.99 164.536 235.925C164.687 235.843 164.823 235.735 164.936 235.605C165.038 235.49 165.126 235.362 165.196 235.225C165.239 235.146 165.285 235.07 165.336 234.995C165.379 234.944 165.429 234.901 165.486 234.865L166.106 234.505C166.127 234.488 166.154 234.479 166.181 234.479C166.208 234.479 166.235 234.488 166.256 234.505C166.282 234.537 166.301 234.574 166.312 234.614C166.322 234.653 166.323 234.695 166.316 234.735C166.305 234.93 166.264 235.122 166.196 235.305C166.11 235.583 165.996 235.851 165.856 236.105C165.699 236.398 165.512 236.673 165.296 236.925C165.081 237.183 164.824 237.403 164.536 237.575C164.3 237.73 164.017 237.797 163.736 237.765C163.49 237.706 163.276 237.556 163.136 237.345C162.939 237.042 162.806 236.702 162.746 236.345C162.655 235.888 162.611 235.422 162.616 234.955ZM164.536 231.765C164.382 231.848 164.249 231.964 164.146 232.105C164.035 232.245 163.944 232.4 163.876 232.565C163.806 232.731 163.749 232.901 163.706 233.075C163.671 233.233 163.647 233.394 163.636 233.555L165.396 232.555C165.386 232.417 165.366 232.28 165.336 232.145C165.321 232.024 165.272 231.91 165.196 231.815C165.166 231.772 165.127 231.736 165.083 231.708C165.038 231.68 164.988 231.663 164.936 231.655C164.794 231.643 164.652 231.682 164.536 231.765Z" fill="#A29F9F"/>
<path d="M169.596 228.975C169.293 229.148 169.054 229.415 168.916 229.735C168.76 230.157 168.689 230.606 168.706 231.055V234.665C168.707 234.768 168.687 234.871 168.646 234.965C168.621 235.048 168.568 235.119 168.496 235.165L167.906 235.505C167.897 235.516 167.885 235.524 167.872 235.53C167.859 235.536 167.845 235.539 167.831 235.539C167.817 235.539 167.803 235.536 167.79 235.53C167.777 235.524 167.765 235.516 167.756 235.505C167.711 235.437 167.69 235.356 167.696 235.275V228.805C167.696 228.702 167.717 228.6 167.756 228.505C167.784 228.425 167.836 228.355 167.906 228.305L168.496 227.965C168.516 227.946 168.543 227.936 168.571 227.936C168.599 227.936 168.626 227.946 168.646 227.965C168.692 228.029 168.714 228.107 168.706 228.185V228.505C168.825 228.237 168.973 227.982 169.146 227.745C169.304 227.526 169.509 227.345 169.746 227.215L170.106 227.005C170.125 226.987 170.15 226.977 170.176 226.977C170.202 226.977 170.227 226.987 170.246 227.005C170.294 227.072 170.319 227.153 170.316 227.235V228.145C170.314 228.249 170.29 228.351 170.246 228.445C170.221 228.525 170.172 228.594 170.106 228.645L169.596 228.975Z" fill="#A29F9F"/>
<path d="M177.056 228.495C177.065 228.485 177.077 228.476 177.09 228.47C177.103 228.464 177.117 228.461 177.131 228.461C177.145 228.461 177.159 228.464 177.172 228.47C177.185 228.476 177.197 228.485 177.206 228.495C177.251 228.563 177.272 228.644 177.266 228.725V229.725C177.265 229.828 177.245 229.93 177.206 230.025C177.172 230.1 177.12 230.165 177.056 230.215L173.636 232.215C173.616 232.234 173.589 232.245 173.561 232.245C173.533 232.245 173.506 232.234 173.486 232.215C173.441 232.151 173.42 232.073 173.426 231.995V222.995C173.426 222.892 173.447 222.79 173.486 222.695C173.514 222.617 173.567 222.551 173.636 222.505L174.266 222.135C174.286 222.116 174.313 222.106 174.341 222.106C174.369 222.106 174.396 222.116 174.416 222.135C174.461 222.199 174.482 222.277 174.476 222.355V229.965L177.056 228.495Z" fill="#A29F9F"/>
<path d="M180.126 221.095C180.351 220.939 180.623 220.865 180.896 220.885C181.13 220.904 181.348 221.011 181.506 221.185C181.692 221.399 181.829 221.652 181.906 221.925C182.013 222.279 182.073 222.646 182.086 223.015C182.086 223.095 182.086 223.205 182.086 223.335V224.105C182.086 224.225 182.086 224.335 182.086 224.425C182.066 224.86 182.006 225.292 181.906 225.715C181.813 226.128 181.679 226.53 181.506 226.915C181.347 227.274 181.142 227.61 180.896 227.915C180.685 228.192 180.424 228.426 180.126 228.605C179.895 228.756 179.622 228.829 179.346 228.815C179.115 228.795 178.9 228.688 178.746 228.515C178.554 228.309 178.417 228.058 178.346 227.785C178.239 227.431 178.179 227.065 178.166 226.695C178.166 226.615 178.166 226.515 178.166 226.385V225.615C178.166 225.485 178.166 225.375 178.166 225.295C178.178 224.857 178.235 224.422 178.336 223.995C178.433 223.58 178.571 223.174 178.746 222.785C178.905 222.429 179.106 222.093 179.346 221.785C179.558 221.506 179.823 221.272 180.126 221.095ZM181.066 223.675C181.065 223.454 181.028 223.234 180.956 223.025C180.919 222.898 180.842 222.786 180.736 222.705C180.651 222.648 180.548 222.623 180.446 222.635C180.332 222.657 180.223 222.701 180.126 222.765C180.008 222.83 179.901 222.91 179.806 223.005C179.691 223.125 179.594 223.259 179.516 223.405C179.415 223.587 179.341 223.782 179.296 223.985C179.23 224.241 179.19 224.502 179.176 224.765C179.176 224.845 179.176 224.935 179.176 225.045V225.755C179.176 225.865 179.176 225.955 179.176 226.015C179.185 226.236 179.226 226.455 179.296 226.665C179.332 226.793 179.41 226.905 179.516 226.985C179.557 227.015 179.605 227.035 179.655 227.046C179.705 227.056 179.756 227.056 179.806 227.045C179.919 227.026 180.028 226.985 180.126 226.925C180.242 226.858 180.349 226.778 180.446 226.685C180.557 226.563 180.655 226.429 180.736 226.285C180.832 226.101 180.906 225.907 180.956 225.705C181.021 225.45 181.058 225.189 181.066 224.925C181.072 224.832 181.072 224.739 181.066 224.645V223.945C181.072 223.855 181.072 223.765 181.066 223.675Z" fill="#A29F9F"/>
<path d="M185.146 226.945C185.274 226.867 185.389 226.769 185.486 226.655C185.606 226.514 185.71 226.36 185.796 226.195C185.895 225.994 185.972 225.783 186.026 225.565C186.087 225.32 186.118 225.068 186.116 224.815V224.305C186.116 224.405 186.016 224.525 185.946 224.665C185.877 224.812 185.797 224.952 185.706 225.085C185.601 225.226 185.488 225.36 185.366 225.485C185.24 225.617 185.095 225.728 184.936 225.815C184.833 225.885 184.717 225.934 184.595 225.958C184.473 225.982 184.348 225.981 184.226 225.955C184.004 225.886 183.813 225.741 183.686 225.545C183.523 225.287 183.405 225.003 183.336 224.705C183.251 224.328 183.204 223.942 183.196 223.555C183.196 223.425 183.196 223.265 183.196 223.075C183.196 222.885 183.196 222.725 183.196 222.585C183.208 222.146 183.255 221.708 183.336 221.275C183.418 220.85 183.535 220.432 183.686 220.025C183.827 219.672 184.008 219.337 184.226 219.025C184.41 218.75 184.653 218.518 184.936 218.345C185.069 218.265 185.214 218.208 185.366 218.175C185.478 218.154 185.594 218.154 185.706 218.175C185.795 218.2 185.877 218.245 185.946 218.305C186.01 218.354 186.067 218.411 186.116 218.475V218.155C186.116 218.052 186.137 217.95 186.176 217.855C186.204 217.777 186.257 217.711 186.326 217.665L186.916 217.315C186.936 217.296 186.963 217.286 186.991 217.286C187.019 217.286 187.046 217.296 187.066 217.315C187.114 217.382 187.139 217.463 187.136 217.545V224.045C187.163 225.019 186.982 225.987 186.606 226.885C186.311 227.592 185.8 228.187 185.146 228.585C184.923 228.724 184.668 228.803 184.406 228.815C184.198 228.828 183.992 228.775 183.816 228.665C183.647 228.539 183.51 228.374 183.416 228.185C183.318 227.957 183.264 227.713 183.256 227.465C183.247 227.362 183.267 227.257 183.316 227.165C183.34 227.083 183.394 227.012 183.466 226.965L183.996 226.665C184.008 226.652 184.023 226.642 184.039 226.635C184.055 226.628 184.073 226.624 184.091 226.624C184.109 226.624 184.126 226.628 184.143 226.635C184.159 226.642 184.174 226.652 184.186 226.665C184.235 226.717 184.279 226.774 184.316 226.835C184.377 226.943 184.477 227.022 184.596 227.055C184.716 227.145 184.896 227.045 185.146 226.945ZM184.206 222.095C184.206 222.362 184.206 222.622 184.206 222.875C184.177 223.275 184.291 223.671 184.526 223.995C184.615 224.072 184.728 224.114 184.846 224.114C184.963 224.114 185.077 224.072 185.166 223.995C185.456 223.807 185.683 223.535 185.816 223.215C185.998 222.798 186.1 222.35 186.116 221.895C186.116 221.745 186.116 221.565 186.116 221.355C186.116 221.145 186.116 220.965 186.116 220.835C186.136 220.477 186.03 220.123 185.816 219.835C185.727 219.754 185.611 219.709 185.491 219.709C185.37 219.709 185.254 219.754 185.166 219.835C184.881 220.023 184.659 220.291 184.526 220.605C184.32 221.075 184.212 221.582 184.206 222.095Z" fill="#A29F9F"/>
<path d="M189.466 213.215C189.486 213.199 189.51 213.19 189.536 213.19C189.561 213.19 189.586 213.199 189.606 213.215C189.658 213.28 189.683 213.362 189.676 213.445V214.535C189.677 214.639 189.653 214.742 189.606 214.835C189.578 214.91 189.529 214.976 189.466 215.025L188.796 215.415C188.786 215.426 188.775 215.434 188.762 215.44C188.749 215.446 188.735 215.449 188.721 215.449C188.707 215.449 188.693 215.446 188.68 215.44C188.667 215.434 188.655 215.426 188.646 215.415C188.62 215.385 188.6 215.35 188.588 215.313C188.576 215.275 188.572 215.235 188.576 215.195V214.105C188.575 214.001 188.599 213.898 188.646 213.805C188.674 213.727 188.727 213.661 188.796 213.615L189.466 213.215ZM189.636 222.605C189.636 222.705 189.616 222.804 189.576 222.895C189.544 222.974 189.492 223.043 189.426 223.095L188.826 223.435C188.817 223.446 188.807 223.454 188.795 223.46C188.783 223.466 188.769 223.469 188.756 223.469C188.742 223.469 188.729 223.466 188.717 223.46C188.705 223.454 188.694 223.446 188.686 223.435C188.634 223.371 188.608 223.288 188.616 223.205V216.735C188.615 216.631 188.639 216.528 188.686 216.435C188.714 216.357 188.762 216.288 188.826 216.235L189.426 215.895C189.446 215.876 189.473 215.866 189.501 215.866C189.529 215.866 189.556 215.876 189.576 215.895C189.621 215.96 189.642 216.037 189.636 216.115V222.605Z" fill="#A29F9F"/>
<path d="M194.896 219.555C194.895 219.658 194.875 219.76 194.836 219.855C194.808 219.933 194.755 220 194.686 220.045L194.086 220.395C194.067 220.414 194.042 220.424 194.016 220.424C193.99 220.424 193.965 220.414 193.946 220.395C193.894 220.331 193.868 220.248 193.876 220.165V216.645C193.907 216.23 193.831 215.813 193.656 215.435C193.516 215.185 193.296 215.145 192.986 215.325C192.677 215.533 192.447 215.84 192.336 216.195C192.169 216.667 192.088 217.165 192.096 217.665V221.195C192.095 221.298 192.075 221.4 192.036 221.495C192.011 221.578 191.958 221.649 191.886 221.695L191.296 222.035C191.287 222.046 191.275 222.054 191.262 222.06C191.249 222.066 191.235 222.069 191.221 222.069C191.207 222.069 191.193 222.066 191.18 222.06C191.167 222.054 191.155 222.046 191.146 222.035C191.1 221.972 191.078 221.894 191.086 221.815V215.345C191.084 215.242 191.105 215.14 191.146 215.045C191.17 214.963 191.224 214.892 191.296 214.845L191.886 214.505C191.895 214.495 191.907 214.486 191.92 214.48C191.933 214.474 191.947 214.471 191.961 214.471C191.975 214.471 191.989 214.474 192.002 214.48C192.015 214.486 192.027 214.495 192.036 214.505C192.081 214.573 192.102 214.654 192.096 214.735V215.045C192.227 214.74 192.388 214.449 192.576 214.175C192.741 213.923 192.963 213.714 193.226 213.565C193.453 213.399 193.737 213.327 194.016 213.365C194.127 213.393 194.23 213.444 194.32 213.515C194.409 213.585 194.483 213.674 194.536 213.775C194.681 214.046 194.776 214.341 194.816 214.645C194.869 215.043 194.896 215.444 194.896 215.845V219.555Z" fill="#A29F9F"/>
<path d="M245.336 190.445L235.626 196.045L237.136 182.425C235.966 181.805 235.226 180.295 235.226 178.125C235.226 174.255 237.586 169.765 240.486 168.125C243.386 166.485 245.736 168.225 245.736 172.125C245.676 174.42 245.021 176.66 243.836 178.625L245.336 190.445Z" fill="#455A64"/>
<path d="M245.346 190.445L236.796 185.515L235.626 196.055L245.346 190.445Z" fill="#37474F"/>
<path d="M240.466 168.095C238.351 169.524 236.774 171.618 235.986 174.045L243.816 178.565C245.001 176.6 245.656 174.36 245.716 172.065C245.736 168.195 243.386 166.425 240.466 168.095Z" fill="#37474F"/>
<path d="M193.266 122.745C189.936 120.825 185.346 121.095 180.266 124.025C170.126 129.885 161.906 144.115 161.906 155.825C161.906 161.705 163.986 165.825 167.326 167.725L173.796 171.485C177.116 173.405 181.706 173.125 186.796 170.195C196.936 164.345 205.156 150.105 205.156 138.395C205.156 132.545 203.096 128.395 199.776 126.525" fill="#216778"/>
<path d="M186.786 127.795C176.646 133.655 168.426 147.895 168.426 159.595C168.426 171.295 176.646 176.055 186.786 170.195C196.926 164.335 205.156 150.105 205.146 138.395C205.136 126.685 196.916 121.945 186.786 127.795Z" fill="#216778"/>
<path d="M196.916 153.775V155.115C194.487 159.451 191.002 163.104 186.786 165.735C182.836 168.005 179.266 168.255 176.646 166.805V164.045C176.78 161.174 177.6 158.376 179.037 155.887C180.474 153.397 182.486 151.288 184.906 149.735L187.576 148.195C189.936 146.835 192.236 146.655 194.036 147.705C195.836 148.755 196.916 150.965 196.916 153.775Z" fill="#216778"/>
<path opacity="0.4" d="M193.266 122.745L199.766 126.525C196.446 124.595 191.856 124.865 186.766 127.795C180.126 131.635 174.306 139.065 171.086 147.025L164.576 143.255C167.806 135.255 173.576 127.865 180.256 124.025C185.356 121.105 189.946 120.825 193.266 122.745Z" fill="#979292"/>
<path opacity="0.2" d="M173.566 171.335L167.336 167.725C163.996 165.825 161.916 161.725 161.916 155.825L168.426 159.605C168.466 165.305 170.386 169.365 173.566 171.335Z" fill="black"/>
<path opacity="0.1" d="M164.596 143.255L171.106 147.025C169.438 151.01 168.542 155.276 168.466 159.595L161.956 155.815C162.036 151.5 162.932 147.238 164.596 143.255Z" fill="black"/>
<path d="M184.466 147.565C183.845 147.572 183.235 147.413 182.696 147.105C182.047 146.672 181.526 146.072 181.19 145.368C180.854 144.664 180.714 143.882 180.786 143.105C180.871 141.283 181.391 139.508 182.302 137.928C183.214 136.349 184.491 135.01 186.026 134.025C186.643 133.533 187.393 133.238 188.18 133.18C188.967 133.121 189.753 133.301 190.436 133.697C191.119 134.092 191.666 134.684 192.007 135.396C192.348 136.108 192.466 136.905 192.346 137.685C192.259 139.507 191.739 141.281 190.827 142.861C189.916 144.44 188.64 145.779 187.106 146.765C186.312 147.261 185.401 147.537 184.466 147.565Z" fill="#979292"/>
<path d="M194.036 147.695C192.236 146.645 189.936 146.825 187.576 148.185L184.906 149.725C182.485 151.279 180.472 153.389 179.035 155.881C177.598 158.372 176.778 161.172 176.646 164.045V166.815C179.266 168.265 182.836 168.015 186.786 165.745C191.002 163.114 194.487 159.461 196.916 155.125V153.785C196.916 150.965 195.876 148.755 194.036 147.695Z" fill="#979292"/>
<path d="M418.71 325.579C418.71 325.579 420.04 313.899 425.85 304.829C431.66 295.759 439.64 290.109 447.09 289.519C454.54 288.929 460.56 295.789 452.59 300.519C444.62 305.249 430.46 310.029 423.94 327.629L418.71 325.579Z" fill="#216778"/>
<path opacity="0.1" d="M418.71 325.579C418.71 325.579 420.04 313.899 425.85 304.829C431.66 295.759 439.64 290.109 447.09 289.519C454.54 288.929 460.56 295.789 452.59 300.519C444.62 305.249 430.46 310.029 423.94 327.629L418.71 325.579Z" fill="black"/>
<path d="M420.9 322.539H420.82C420.722 322.499 420.644 322.422 420.603 322.325C420.561 322.227 420.56 322.117 420.6 322.019C428.46 302.669 443.42 294.579 450.24 293.019C450.291 293.008 450.344 293.006 450.396 293.015C450.448 293.023 450.498 293.042 450.542 293.07C450.587 293.098 450.625 293.134 450.656 293.177C450.686 293.22 450.708 293.268 450.72 293.319C450.732 293.371 450.733 293.424 450.725 293.475C450.716 293.527 450.697 293.577 450.669 293.621C450.642 293.666 450.605 293.705 450.562 293.735C450.52 293.766 450.471 293.788 450.42 293.799C443.74 295.339 429.07 303.279 421.34 322.329C421.301 322.409 421.237 322.473 421.157 322.512C421.077 322.55 420.986 322.56 420.9 322.539Z" fill="#979292"/>
<path d="M460.68 322.769C460.01 324.289 458.35 325.089 456.81 325.709C455.27 326.329 453.59 326.999 452.75 328.439C451.07 331.339 453.83 335.439 452.03 338.249C451.606 338.815 451.072 339.289 450.461 339.643C449.849 339.997 449.172 340.224 448.47 340.309C447.32 340.519 446.15 340.519 444.99 340.619C444.434 340.612 443.88 340.569 443.33 340.489C441.714 340.129 440.024 340.308 438.52 340.999C436.21 342.299 435.52 345.209 434.1 347.459C433.232 348.784 432.089 349.906 430.748 350.748C429.407 351.59 427.9 352.133 426.33 352.339C425.33 352.469 423.33 352.659 422.33 352.069C422.252 352.031 422.178 351.984 422.11 351.929C421.96 351.769 421.78 351.559 421.7 351.449C421.695 351.426 421.695 351.402 421.7 351.379C421.29 349.869 421.96 348.309 421.99 346.749V346.469C421.92 344.659 421.87 342.859 421.83 341.059C421.743 337.726 421.71 334.393 421.73 331.059C421.73 328.899 421.49 326.539 422.41 324.509C423.41 322.269 425.93 322.219 426.88 320.029C427.26 319.149 427.46 318.219 427.83 317.329C428.402 316.035 429.318 314.923 430.478 314.114C431.638 313.305 432.998 312.829 434.41 312.739C438.8 312.519 442.73 316.069 447.12 315.739C448.25 315.649 449.36 315.299 450.48 315.099C454.03 314.429 458.14 315.439 460.14 318.449C460.579 319.069 460.858 319.788 460.952 320.542C461.046 321.295 460.953 322.061 460.68 322.769Z" fill="#216778"/>
<path d="M421.26 344.449C421.165 344.421 421.085 344.358 421.037 344.272C420.988 344.186 420.975 344.085 421 343.989C427.06 321.249 451 317.989 456.63 318.369C456.68 318.372 456.728 318.384 456.773 318.406C456.817 318.428 456.857 318.458 456.89 318.495C456.922 318.533 456.947 318.576 456.963 318.623C456.978 318.67 456.984 318.72 456.98 318.769C456.97 318.867 456.923 318.956 456.848 319.02C456.774 319.083 456.678 319.115 456.58 319.109C451.09 318.719 427.65 321.929 421.72 344.189C421.692 344.284 421.628 344.364 421.543 344.412C421.457 344.461 421.355 344.474 421.26 344.449Z" fill="#979292"/>
<path d="M447.89 332.929C447.814 332.919 447.744 332.884 447.69 332.829C445.477 330.911 442.867 329.505 440.048 328.712C437.229 327.918 434.269 327.757 431.38 328.239C431.283 328.248 431.185 328.221 431.108 328.161C431.03 328.102 430.977 328.016 430.96 327.919C430.945 327.821 430.97 327.722 431.028 327.641C431.086 327.561 431.172 327.507 431.27 327.489C434.283 326.988 437.37 327.159 440.309 327.991C443.248 328.822 445.966 330.294 448.27 332.299C448.305 332.334 448.333 332.375 448.353 332.421C448.372 332.466 448.382 332.515 448.382 332.564C448.382 332.614 448.372 332.663 448.353 332.708C448.333 332.754 448.305 332.795 448.27 332.829C448.225 332.883 448.164 332.922 448.096 332.94C448.028 332.958 447.956 332.954 447.89 332.929Z" fill="#979292"/>
<path d="M363.68 50.9294L366.86 52.1494V45.1494C366.86 39.5894 371.29 38.2594 376.1 41.0394C380.92 43.8194 384.82 50.5694 384.82 56.1294V57.1294C385.49 56.9245 386.198 56.8739 386.891 56.9813C387.584 57.0886 388.243 57.3512 388.82 57.7494C390.646 58.9403 392.166 60.5454 393.256 62.4341C394.345 64.3229 394.974 66.442 395.09 68.6194V69.0794L399.53 71.6394C400.731 72.4235 401.731 73.4793 402.448 74.7214C403.166 75.9635 403.581 77.3571 403.66 78.7894C403.66 81.4294 401.81 82.4994 399.53 81.1794L363.68 60.4694C362.478 59.6871 361.478 58.6315 360.762 57.3888C360.046 56.1461 359.634 54.7517 359.56 53.3194C359.56 50.6894 361.39 49.6194 363.68 50.9294Z" fill="white"/>
<path d="M406.27 45.3894L412.04 48.7194C412.008 48.4672 411.992 48.2135 411.99 47.9594V46.2894C411.99 43.2894 414.07 42.1094 416.65 43.5994C417.759 44.2782 418.707 45.189 419.43 46.2694C419.85 42.5294 422.79 41.1394 426.35 43.1894C428.384 44.5131 430.078 46.2975 431.295 48.398C432.511 50.4985 433.215 52.856 433.35 55.2794V57.7794C433.376 58.7783 433.174 59.7699 432.76 60.6794L437.56 63.4394C438.308 63.9355 438.929 64.6001 439.374 65.3799C439.819 66.1597 440.074 67.0329 440.12 67.9294C440.12 69.5794 438.96 70.2494 437.53 69.4294L406.27 51.4294C405.514 50.9368 404.885 50.2723 404.435 49.4902C403.985 48.7081 403.726 47.8306 403.68 46.9294C403.68 45.2394 404.84 44.5694 406.27 45.3894Z" fill="white"/>
<path d="M383.93 197.159C379.73 204.259 375.69 210.429 372.85 213.389C367.46 215.889 354.8 219.749 349.85 220.389C348.981 220.5 348.1 220.294 347.37 219.809C345.42 218.529 343.91 218.319 341.86 217.609C340.25 217.059 339.57 216.289 339.27 216.609C338.96 216.973 338.804 217.443 338.836 217.919C338.868 218.395 339.085 218.841 339.44 219.159C340.209 219.89 341.062 220.528 341.98 221.059C339.784 221.604 337.494 221.645 335.28 221.179C330.99 220.049 328.97 222.109 331.87 226.769C332.87 228.429 336.99 231.099 345.27 230.379C348.224 230.22 351.166 229.886 354.08 229.379C362.02 227.679 370.85 226.039 376.28 224.379C378.3 223.585 380.108 222.332 381.56 220.719C390.69 210.309 393.72 202.889 397.72 196.149L397.38 185.149C390.9 184.929 387.44 191.219 383.93 197.159Z" fill="#FFA8A7"/>
<path d="M398.49 184.929C396.611 184.665 394.696 184.92 392.951 185.665C391.206 186.411 389.698 187.619 388.59 189.159C384.15 194.849 376.29 208.509 376.29 208.509C376.29 208.509 378.86 215.359 385.8 216.509L396.95 201.449C396.95 201.449 402.23 190.989 398.49 184.929Z" fill="#455A64"/>
<path d="M422.6 338.469H415.33V351.429H422.6V338.469Z" fill="#FFA8A7"/>
<path d="M397.4 337.779L390.14 338.039L389.77 324.319L397.4 324.059V337.779Z" fill="#FFA8A7"/>
<path d="M423.62 226.279C423.62 233.499 422.56 291.669 422.56 291.669C422.72 293.749 424.56 297.589 424.19 305.579C423.64 316.429 422.91 344.949 422.91 344.949C421.662 345.588 420.285 345.934 418.883 345.962C417.482 345.99 416.092 345.698 414.82 345.109C414.82 345.109 408.92 305.109 407.62 294.399C406.48 285.009 403.56 253.929 403.56 253.929L399.63 290.669C400.463 294.611 400.766 298.647 400.53 302.669C400.19 307.669 397.85 333.549 397.85 333.549C396.594 334.29 395.186 334.736 393.732 334.852C392.279 334.968 390.818 334.752 389.46 334.219C389.46 334.219 385.32 295.219 385.24 290.639C385.14 285.439 387.66 226.219 387.66 226.219L423.62 226.279Z" fill="#37474F"/>
<path d="M415.33 347.689V346.609C414.63 346.919 413.02 353.339 410.13 356.079C407.84 358.259 404.72 360.769 403.92 363.199C403.12 365.629 408.27 367.119 410.42 366.729C412.9 366.269 417.22 364.439 418.3 362.729C419.38 361.019 419.89 358.539 420.77 357.299C421.65 356.059 423.68 354.679 424.15 353.239C424.297 351.892 424.157 350.529 423.74 349.239C423.4 347.899 423.04 346.429 422.6 346.559V347.379C421.575 348.221 420.286 348.674 418.96 348.659C417.9 348.749 415.32 348.529 415.33 347.689Z" fill="#263238"/>
<path d="M390.06 335.699C389.68 335.699 389.37 336.269 388.54 337.209C387.306 338.508 385.862 339.589 384.27 340.409C381.55 341.829 376.27 344.009 373.86 345.139C372.36 345.839 372.43 347.719 373.98 348.789C375.53 349.859 379.26 350.629 383.74 349.589C386.18 349.019 389.36 346.669 391.38 346.799C393.4 346.929 397.15 346.889 398.64 345.799C400.13 344.709 399.53 342.449 399.11 340.499C398.65 338.359 398.11 335.029 397.4 335.179V335.929C396.53 337.309 392.02 337.869 390.1 336.859L390.06 335.699Z" fill="#263238"/>
<path d="M403.56 253.929C399.778 252.691 396.321 250.624 393.44 247.879C393.44 247.879 395.44 251.689 401.2 255.239L399.96 288.049L403.56 253.929Z" fill="#263238"/>
<path d="M419.56 185.989C419.56 185.989 425.56 187.369 425.13 198.209L423.88 215.459V241.359C418.54 247.419 394.88 246.979 386.73 240.879C386.73 240.879 387.65 210.229 388.2 198.429C388.59 190.049 390.52 185.829 398.76 184.909L408.89 185.349L419.56 185.989Z" fill="#216778"/>
<path d="M411.92 163.469C411.954 164.921 411.701 166.364 411.175 167.717C410.649 169.07 409.861 170.306 408.855 171.352C407.849 172.399 406.646 173.236 405.315 173.816C403.984 174.396 402.551 174.706 401.1 174.729C395.1 174.729 391.58 169.549 390.28 163.469C387.88 152.339 395.12 152.199 401.1 152.199C404.029 152.26 406.814 153.481 408.843 155.594C410.872 157.708 411.979 160.54 411.92 163.469Z" fill="#263238"/>
<path d="M417.44 168.019C417.44 168.019 415.78 176.139 415.11 177.479C414.689 178.286 413.972 178.898 413.11 179.189L413.23 173.479L417.44 168.019Z" fill="#263238"/>
<path d="M415.35 156.389C415.35 156.389 416.54 156.089 417.81 158.069C418.89 159.759 419.14 163.559 417.44 168.069L414.31 168.449L415.35 156.389Z" fill="#263238"/>
<path d="M416.5 158.039L420.34 158.109C420.366 157.861 420.341 157.61 420.266 157.372C420.19 157.134 420.067 156.915 419.902 156.727C419.738 156.539 419.536 156.387 419.311 156.281C419.085 156.175 418.839 156.116 418.59 156.109C418.065 156.117 417.561 156.318 417.176 156.674C416.79 157.031 416.549 157.517 416.5 158.039Z" fill="#263238"/>
<path d="M416.97 157.129L419.81 154.399C419.646 154.206 419.444 154.05 419.217 153.939C418.99 153.828 418.742 153.765 418.489 153.755C418.236 153.744 417.984 153.786 417.749 153.878C417.513 153.971 417.299 154.11 417.12 154.289C416.743 154.658 416.519 155.154 416.491 155.68C416.463 156.206 416.634 156.723 416.97 157.129Z" fill="#263238"/>
<path d="M413.37 168.399C414 168.789 414.89 167.539 415.67 166.689C416.45 165.839 418.87 165.059 420.13 167.819C421.39 170.579 419.24 173.309 417.44 174.209C414.21 175.809 413.19 173.479 413.19 173.479L412.92 186.339C408.38 193.339 398.08 193.119 401.79 185.999V182.089C400.264 182.343 398.714 182.424 397.17 182.329C394.65 181.929 393.07 179.859 392.3 177.019C391.08 172.459 390.61 168.779 391.65 159.809C392.79 149.989 403.77 149.879 409.65 153.809C415.53 157.739 413.37 168.399 413.37 168.399Z" fill="#FFA8A7"/>
<path d="M399.69 158.279C402.31 158.019 404.9 157.479 407.53 157.279C408.097 157.211 408.672 157.238 409.23 157.359C411.23 157.909 410.99 160.249 411.31 161.879C411.86 164.699 412.31 169.469 413.37 169.489C413.69 169.489 414.89 167.419 415.67 166.679C416.099 166.042 416.341 165.297 416.37 164.529C416.57 163.369 416.67 162.179 416.76 160.999C416.84 159.999 416.94 158.999 416.94 157.999C416.986 156.869 416.895 155.738 416.67 154.629C416.419 153.686 415.938 152.82 415.27 152.109L415.07 151.889C413.752 150.511 412.152 149.433 410.38 148.729C407.83 147.774 405.156 147.191 402.44 146.999C399.728 146.807 397.027 146.473 394.35 145.999C394.197 145.955 394.033 145.955 393.88 145.999C393.771 146.059 393.68 146.146 393.613 146.251C393.547 146.356 393.508 146.476 393.5 146.599C393.39 147.221 393.459 147.861 393.698 148.445C393.937 149.029 394.336 149.533 394.85 149.899C393.04 150.039 390.96 149.099 389.22 148.619C389.079 148.56 388.928 148.529 388.775 148.529C388.622 148.529 388.471 148.56 388.33 148.619C388.155 148.741 388.031 148.923 387.98 149.129C387.853 149.599 387.836 150.092 387.93 150.569C388.089 152.017 388.627 153.396 389.49 154.569C390.838 156.324 392.742 157.569 394.89 158.099C396.471 158.404 398.09 158.465 399.69 158.279Z" fill="#263238"/>
<path d="M401.8 182.089C401.8 182.089 407.42 180.909 409.38 179.819C410.547 179.181 411.495 178.205 412.1 177.019C411.805 178.21 411.278 179.332 410.55 180.319C409.12 182.239 401.8 183.639 401.8 183.639V182.089Z" fill="#F28F8F"/>
<path d="M403.15 166.929C403.139 167.238 403.251 167.538 403.461 167.765C403.67 167.992 403.961 168.126 404.27 168.139C404.515 168.16 404.76 168.105 404.974 167.984C405.187 167.862 405.359 167.678 405.467 167.457C405.574 167.236 405.613 166.988 405.577 166.745C405.541 166.502 405.432 166.275 405.265 166.095C405.098 165.914 404.881 165.789 404.641 165.734C404.401 165.679 404.151 165.698 403.922 165.789C403.694 165.879 403.497 166.036 403.36 166.24C403.222 166.443 403.149 166.684 403.15 166.929Z" fill="#263238"/>
<path d="M404.95 162.079L407.36 163.469C407.535 163.127 407.575 162.73 407.471 162.36C407.368 161.989 407.128 161.671 406.8 161.469C406.64 161.38 406.463 161.324 406.281 161.307C406.099 161.289 405.915 161.309 405.741 161.367C405.567 161.424 405.406 161.517 405.27 161.64C405.134 161.763 405.025 161.912 404.95 162.079Z" fill="#263238"/>
<path d="M402.3 175.039L399.73 176.039C399.782 176.216 399.869 176.379 399.987 176.52C400.104 176.662 400.25 176.777 400.414 176.859C400.578 176.942 400.757 176.99 400.941 177C401.124 177.011 401.308 176.983 401.48 176.919C401.83 176.769 402.109 176.491 402.262 176.141C402.414 175.792 402.428 175.398 402.3 175.039Z" fill="#F28F8F"/>
<path d="M392.81 163.109L395.01 161.349C394.911 161.196 394.782 161.065 394.629 160.964C394.476 160.864 394.304 160.797 394.124 160.768C393.944 160.739 393.76 160.748 393.583 160.795C393.407 160.841 393.242 160.925 393.1 161.039C392.806 161.289 392.614 161.637 392.56 162.019C392.507 162.401 392.596 162.789 392.81 163.109Z" fill="#263238"/>
<path d="M393.78 166.599C393.797 166.818 393.878 167.027 394.013 167.201C394.147 167.374 394.329 167.505 394.536 167.577C394.744 167.649 394.968 167.659 395.18 167.606C395.393 167.552 395.586 167.438 395.735 167.277C395.885 167.116 395.984 166.915 396.02 166.699C396.057 166.482 396.03 166.26 395.943 166.059C395.855 165.857 395.711 165.686 395.527 165.565C395.344 165.445 395.13 165.38 394.91 165.379C394.755 165.385 394.603 165.42 394.463 165.484C394.322 165.549 394.196 165.64 394.091 165.754C393.985 165.867 393.904 166 393.851 166.145C393.797 166.291 393.773 166.445 393.78 166.599Z" fill="#263238"/>
<path d="M399.81 165.659L399.68 172.769L395.64 171.849L399.81 165.659Z" fill="#F28F8F"/>
<path d="M303.87 225.209L310.14 221.589L312.62 218.579L306.36 222.199L303.87 225.209Z" fill="#216778"/>
<path opacity="0.4" d="M303.87 225.209L310.14 221.589L312.62 218.579L306.36 222.199L303.87 225.209Z" fill="black"/>
<path d="M320.92 235.049L327.19 231.429L332.42 226.799L326.16 230.409L320.92 235.049Z" fill="#216778"/>
<path opacity="0.4" d="M320.92 235.049L327.19 231.429L332.42 226.799L326.16 230.409L320.92 235.049Z" fill="black"/>
<path d="M374.18 247.539C375.663 249.527 376.56 251.889 376.77 254.359C375.294 252.369 374.398 250.008 374.18 247.539ZM388.75 247.729C386.64 233.379 378.93 219.189 369.75 213.879C365.34 211.329 361.26 211.239 357.99 213.149L352.09 216.549L351.76 216.749C351.497 216.894 351.243 217.054 351 217.229C350.515 217.563 350.06 217.938 349.64 218.349L349.44 218.539C349.26 218.719 349.07 218.929 348.9 219.129C348.73 219.329 348.47 219.639 348.27 219.909C347.846 220.468 347.461 221.056 347.12 221.669C346.94 221.979 346.77 222.309 346.61 222.669L295.08 192.929L288.82 196.539V200.539L289.35 200.839L289.85 201.129V201.929L288.85 202.519V204.839L296.42 220.839L303.9 225.169L306.39 222.169L312.99 226.119L316.78 232.609L320.96 235.019L326.19 230.379L332.61 234.089L334.77 242.999L345.56 249.239C346.093 251.507 346.761 253.741 347.56 255.929C347.63 256.149 347.72 256.379 347.81 256.629C351.39 266.029 357.08 274.079 363.5 277.789C364.269 278.246 365.076 278.637 365.91 278.959C366.351 279.135 366.802 279.285 367.26 279.409C367.66 279.516 368.06 279.606 368.46 279.679C369.723 279.91 371.017 279.91 372.28 279.679L372.8 279.549C373.049 279.499 373.293 279.429 373.53 279.339L374.09 279.119C374.288 279.048 374.479 278.957 374.66 278.849C374.845 278.769 375.025 278.679 375.2 278.579L375.46 278.419C375.507 278.404 375.551 278.38 375.59 278.349C377.02 277.529 380.54 275.489 381.5 274.949C386.26 272.189 389.34 265.209 389.34 255.339C389.332 252.792 389.135 250.248 388.75 247.729Z" fill="#216778"/>
<path d="M372.35 259.649C369.87 258.219 367.87 253.979 367.87 250.179C367.87 246.379 369.87 244.449 372.35 245.869C374.83 247.289 376.82 251.539 376.82 255.349C376.82 259.159 374.82 261.079 372.35 259.649ZM382.48 251.339C380.38 236.999 372.67 222.799 363.48 217.499C359.22 215.039 355.28 214.859 352.08 216.549L351.75 216.749C351.487 216.894 351.233 217.054 350.99 217.229C350.505 217.563 350.05 217.938 349.63 218.349L349.43 218.539C349.25 218.719 349.06 218.929 348.89 219.129C348.72 219.329 348.46 219.639 348.26 219.909C347.836 220.468 347.451 221.056 347.11 221.669C346.93 221.979 346.76 222.309 346.6 222.669C345.668 224.602 344.995 226.65 344.6 228.759L288.81 196.539V200.539L289.34 200.839L289.84 201.129V201.929L288.84 202.519V204.839L296.41 220.839L303.89 225.169L306.38 222.169L312.98 226.119L316.77 232.609L320.95 235.019L326.18 230.379L332.6 234.089L334.76 242.999L345.56 249.239C346.093 251.507 346.761 253.741 347.56 255.929C347.63 256.149 347.72 256.379 347.81 256.629C351.39 266.029 357.08 274.079 363.5 277.789C364.269 278.246 365.076 278.637 365.91 278.959C366.351 279.135 366.802 279.285 367.26 279.409C367.66 279.516 368.06 279.606 368.46 279.679C369.723 279.91 371.017 279.91 372.28 279.679L372.8 279.549C373.049 279.499 373.293 279.429 373.53 279.339L374.09 279.119C374.288 279.048 374.479 278.957 374.66 278.849C374.845 278.769 375.025 278.679 375.2 278.579L375.46 278.419C375.507 278.404 375.551 278.38 375.59 278.349C380.15 275.469 383.08 268.589 383.08 258.959C383.063 256.408 382.863 253.862 382.48 251.339Z" fill="#216778"/>
<path opacity="0.4" d="M376.82 255.339C376.82 259.149 374.82 261.079 372.35 259.649C369.88 258.219 367.87 253.989 367.87 250.179C367.87 246.369 369.87 244.439 372.35 245.869C373.064 246.304 373.686 246.875 374.18 247.549C374.395 250.019 375.292 252.38 376.77 254.369C376.807 254.691 376.823 255.015 376.82 255.339Z" fill="black"/>
<path opacity="0.4" d="M389.32 255.329C389.32 265.199 386.24 272.179 381.48 274.939C380.48 275.479 377 277.519 375.57 278.339C380.13 275.459 383.06 268.579 383.06 258.949C383.049 256.402 382.856 253.859 382.48 251.339C380.38 236.999 372.67 222.799 363.48 217.499C359.22 215.039 355.28 214.859 352.08 216.549L357.98 213.149C361.25 211.239 365.33 211.329 369.74 213.879C378.93 219.189 386.64 233.379 388.74 247.729C389.121 250.245 389.315 252.785 389.32 255.329Z" fill="#979292"/>
<path d="M383.06 258.929C383.06 268.559 380.13 275.439 375.57 278.319C377 277.499 380.52 275.459 381.48 274.919C386.24 272.159 389.32 265.179 389.32 255.309C389.32 254.949 389.32 254.579 389.32 254.209L383.06 257.829C383.05 258.219 383.06 258.579 383.06 258.929Z" fill="#216778"/>
<path opacity="0.1" d="M383.06 258.929C383.06 268.559 380.13 275.439 375.57 278.319C377 277.499 380.52 275.459 381.48 274.919C386.24 272.159 389.32 265.179 389.32 255.309C389.32 254.949 389.32 254.579 389.32 254.209L383.06 257.829C383.05 258.219 383.06 258.579 383.06 258.929Z" fill="black"/>
<path opacity="0.15" d="M344.84 232.849V234.879L288.82 202.539L289.85 201.939V201.099L344.84 232.849Z" fill="black"/>
<path opacity="0.15" d="M344.84 233.689V234.879L288.82 202.539L289.85 201.939V201.929L344.84 233.689Z" fill="black"/>
<path opacity="0.15" d="M369.2 274.929C367.077 274.874 365.006 274.256 363.2 273.139C354.07 267.869 346.64 252.189 346.64 238.189C346.64 230.019 349.11 223.919 353.42 221.429C356.42 219.689 359.97 219.909 363.7 222.059C372.82 227.329 380.25 243.059 380.25 257.059C380.25 265.219 377.78 271.329 373.47 273.809C372.17 274.552 370.697 274.938 369.2 274.929ZM357.75 221.279C356.417 221.272 355.106 221.617 353.95 222.279C350.02 224.549 347.67 230.499 347.67 238.179C347.67 251.859 354.87 267.179 363.73 272.259C367.12 274.259 370.33 274.439 373 272.899C376.93 270.629 379.28 264.689 379.28 257.009C379.28 243.319 372.08 228.009 363.23 222.919C361.576 221.913 359.686 221.361 357.75 221.319V221.279Z" fill="black"/>
<path opacity="0.4" d="M346.56 222.649C345.628 224.582 344.955 226.63 344.56 228.739L288.77 196.519L295.03 192.909L346.56 222.649Z" fill="#979292"/>
<path d="M419.07 225.779C421.99 220.249 425.33 207.829 426.99 201.559C429.35 192.659 425.53 187.059 421.19 186.829C418.48 187.249 409.55 219.719 409.55 219.719C408.55 220.509 394.98 227.399 390.62 229.129C389.84 229.424 388.98 229.424 388.2 229.129C386.11 228.369 384.68 228.509 382.63 228.309C381.02 228.149 380.21 227.579 380 227.919C379.809 228.341 379.785 228.82 379.931 229.259C380.078 229.698 380.384 230.066 380.79 230.289C381.673 230.803 382.612 231.213 383.59 231.509C381.837 232.041 380.011 232.287 378.18 232.239C373.98 232.149 372.47 233.969 375.73 238.239C377.73 240.899 381.04 241.739 388.43 239.189C390.55 238.449 393.43 237.019 396.12 236.049C401.66 234.049 403.12 233.809 407.34 232.379C413.49 230.299 417.77 228.239 419.07 225.779Z" fill="#FFA8A7"/>
<path d="M419.56 185.989C422.11 186.339 424.56 186.909 426.07 188.989C427.58 191.069 428.79 193.989 427.31 201.939C426.177 207.53 424.66 213.037 422.77 218.419C422.77 218.419 416.83 220.959 410.52 214.519L414.86 197.739C414.86 197.739 415.56 186.829 419.56 185.989Z" fill="#455A64"/>
</svg>
